<?xml version="1.0" encoding="UTF-8" standalone="no"?>
<!-- Created with Inkscape (http://www.inkscape.org/) -->

<svg
   xmlns:dc="http://purl.org/dc/elements/1.1/"
   xmlns:cc="http://creativecommons.org/ns#"
   xmlns:rdf="http://www.w3.org/1999/02/22-rdf-syntax-ns#"
   xmlns:svg="http://www.w3.org/2000/svg"
   xmlns="http://www.w3.org/2000/svg"
   xmlns:sodipodi="http://sodipodi.sourceforge.net/DTD/sodipodi-0.dtd"
   xmlns:inkscape="http://www.inkscape.org/namespaces/inkscape"
   width="666"
   height="666"
   id="svg2"
   version="1.1"
   inkscape:version="0.48.4 r9939"
   sodipodi:docname="favicon.svg">
  <defs
     id="defs4" />
  <sodipodi:namedview
     id="base"
     pagecolor="#ffffff"
     bordercolor="#666666"
     borderopacity="1.0"
     inkscape:pageopacity="0.0"
     inkscape:pageshadow="2"
     inkscape:zoom="0.41"
     inkscape:cx="474.24055"
     inkscape:cy="460.18783"
     inkscape:document-units="px"
     inkscape:current-layer="layer1"
     showgrid="false"
     fit-margin-top="10"
     fit-margin-left="10"
     fit-margin-right="10"
     fit-margin-bottom="10"
     inkscape:window-width="1280"
     inkscape:window-height="735"
     inkscape:window-x="-2"
     inkscape:window-y="-3"
     inkscape:window-maximized="1" />
  <metadata
     id="metadata7">
    <rdf:RDF>
      <cc:Work
         rdf:about="">
        <dc:format>image/svg+xml</dc:format>
        <dc:type
           rdf:resource="http://purl.org/dc/dcmitype/StillImage" />
        <dc:title></dc:title>
      </cc:Work>
    </rdf:RDF>
  </metadata>
  <g
     inkscape:label="Ebene 1"
     inkscape:groupmode="layer"
     id="layer1"
     transform="translate(400.50627,128.25844)">
    <path
       sodipodi:type="arc"
       style="fill:none;stroke:#b9d4d5;stroke-width:20;stroke-miterlimit:4;stroke-opacity:1;stroke-dasharray:none"
       id="path3851-9"
       sodipodi:cx="-369.35483"
       sodipodi:cy="833.00732"
       sodipodi:rx="56.451614"
       sodipodi:ry="56.451614"
       d="m -312.90321,833.00732 a 56.451614,56.451614 0 1 1 -112.90323,0 56.451614,56.451614 0 1 1 112.90323,0 z"
       transform="translate(212.99291,-876.35718)" />
    <path
       style="fill:none;stroke:#767676;stroke-width:20;stroke-miterlimit:4;stroke-opacity:1"
       d="m -65.23289,-60.892813 c 128.113961,0 232.96764,11.80612 231.25264,26.24353 L 103.51945,491.498 c -1.715,14.43742 -40.638379,26.24353 -168.75234,26.24353 -128.11397,0 -167.03767,-11.80611 -168.75266,-26.24353 l -62.49998,-526.147283 c -1.71499,-14.43741 103.13867,-26.24353 231.25264,-26.24353 z"
       id="rect3004"
       inkscape:connector-curvature="0"
       sodipodi:nodetypes="sssssss" />
    <path
       style="fill:#caf0f2;fill-opacity:1;stroke:#caf0f2;stroke-width:16.44351768;stroke-miterlimit:4;stroke-opacity:1"
       d="M 100.3134,250.03476 73.120721,468.10427 c -1.47912,11.86169 -33.4119,16.73809 -138.744111,16.73809 -105.33222,0 -137.50455,-4.84901 -138.74437,-16.73809 l -22.74081,-218.06951 c 52.14363,-1.93367 242.451751,-2.18688 327.42197,0 z"
       id="rect3004-4"
       inkscape:connector-curvature="0"
       sodipodi:nodetypes="cssscc" />
    <path
       sodipodi:type="arc"
       style="fill:none;stroke:#b9d4d5;stroke-width:20;stroke-miterlimit:4;stroke-opacity:1;stroke-dasharray:none"
       id="path3851"
       sodipodi:cx="-369.35483"
       sodipodi:cy="833.00732"
       sodipodi:rx="56.451614"
       sodipodi:ry="56.451614"
       d="m -312.90321,833.00732 a 56.451614,56.451614 0 1 1 -112.90323,0 56.451614,56.451614 0 1 1 112.90323,0 z"
       transform="translate(229.12195,-592.48623)" />
    <path
       sodipodi:type="arc"
       style="fill:none;stroke:#b9d4d5;stroke-width:20;stroke-miterlimit:4;stroke-opacity:1;stroke-dasharray:none"
       id="path3851-8"
       sodipodi:cx="-369.35483"
       sodipodi:cy="833.00732"
       sodipodi:rx="56.451614"
       sodipodi:ry="56.451614"
       d="m -312.90321,833.00732 a 56.451614,56.451614 0 1 1 -112.90323,0 56.451614,56.451614 0 1 1 112.90323,0 z"
       transform="translate(412.99291,-739.2604)" />
  </g>
</svg>
