<?xml version="1.0" encoding="UTF-8" standalone="no"?>
<!-- Created with Inkscape (http://www.inkscape.org/) -->

<svg
   xmlns:dc="http://purl.org/dc/elements/1.1/"
   xmlns:cc="http://creativecommons.org/ns#"
   xmlns:rdf="http://www.w3.org/1999/02/22-rdf-syntax-ns#"
   xmlns:svg="http://www.w3.org/2000/svg"
   xmlns="http://www.w3.org/2000/svg"
   xmlns:xlink="http://www.w3.org/1999/xlink"
   xmlns:sodipodi="http://sodipodi.sourceforge.net/DTD/sodipodi-0.dtd"
   xmlns:inkscape="http://www.inkscape.org/namespaces/inkscape"
   width="448.17667"
   height="448.17667"
   id="svg3205"
   version="1.1"
   inkscape:version="0.48.3.1 r9886"
   sodipodi:docname="favicon.svg">
  <defs
     id="defs3207">
    <linearGradient
       inkscape:collect="always"
       id="linearGradient3222">
      <stop
         style="stop-color:#000000;stop-opacity:1;"
         offset="0"
         id="stop3224" />
      <stop
         style="stop-color:#000000;stop-opacity:0;"
         offset="1"
         id="stop3226" />
    </linearGradient>
    <linearGradient
       inkscape:collect="always"
       xlink:href="#linearGradient3222"
       id="linearGradient3228"
       x1="252.53813"
       y1="264.8486"
       x2="252.53813"
       y2="958.34082"
       gradientUnits="userSpaceOnUse"
       gradientTransform="translate(226.72443,163.8673)" />
  </defs>
  <sodipodi:namedview
     id="base"
     pagecolor="#ffffff"
     bordercolor="#666666"
     borderopacity="1.0"
     inkscape:pageopacity="0"
     inkscape:pageshadow="2"
     inkscape:zoom="0.35"
     inkscape:cx="55.301146"
     inkscape:cy="200.28563"
     inkscape:document-units="px"
     inkscape:current-layer="layer1"
     showgrid="false"
     inkscape:window-width="1278"
     inkscape:window-height="779"
     inkscape:window-x="0"
     inkscape:window-y="19"
     inkscape:window-maximized="0"
     fit-margin-top="0"
     fit-margin-left="0"
     fit-margin-right="0"
     fit-margin-bottom="0" />
  <metadata
     id="metadata3210">
    <rdf:RDF>
      <cc:Work
         rdf:about="">
        <dc:format>image/svg+xml</dc:format>
        <dc:type
           rdf:resource="http://purl.org/dc/dcmitype/StillImage" />
        <dc:title></dc:title>
      </cc:Work>
    </rdf:RDF>
  </metadata>
  <g
     inkscape:label="Layer 1"
     inkscape:groupmode="layer"
     id="layer1"
     transform="translate(-243.41347,-245.44693)">
    <rect
       style="color:#000000;fill:url(#linearGradient3228);fill-opacity:1;fill-rule:nonzero;stroke:none;stroke-width:0.80699998;marker:none;visibility:visible;display:inline;overflow:visible;enable-background:accumulate"
       id="rect3191"
       width="448.17667"
       height="448.17667"
       x="243.41347"
       y="245.44693"
       inkscape:export-filename="/tmp/favicon.png"
       inkscape:export-xdpi="12.85"
       inkscape:export-ydpi="12.85" />
    <path
       inkscape:connector-curvature="0"
       style="fill:#00ff00;fill-opacity:1;fill-rule:evenodd"
       id="path23-6"
       d="m 637.78864,557.47297 c 0.26786,-4.20518 1.33937,-8.67297 4.5539,-12.87817 7.50056,-9.46154 16.60839,-20.4998 6.42905,-31.01269 6.9648,-30.22411 10.71511,-45.20494 17.94778,-75.42907 -2.14303,-0.78857 -3.4824,-1.31409 -5.62543,-2.10251 -7.23267,29.69844 -10.98298,44.41637 -18.21564,76.4804 -1.87515,0.52551 -3.75029,1.31409 -5.08966,1.8396 l 0,4.73087 c 6.42903,-2.10268 17.67988,-1.57701 9.37568,10.51273 -3.21451,5.25637 -6.42905,10.51273 -9.37568,15.50634 l 0,12.3525 0,0 z m 0,-121.42244 c 3.21451,0 5.62541,-2.62818 5.62541,-5.78204 0,-2.89108 -2.4109,-5.51926 -5.62541,-5.78202 l 0,11.56406 0,0 z m 0,-134.03784 c 6.69691,-4.20518 13.66175,-9.19864 21.16229,-14.45516 9.64357,-7.09599 23.5732,-22.07681 -11.78661,-17.87162 -3.21451,0.26275 -6.42905,0.78842 -9.37568,1.05117 l 0,31.27561 z m 0,-31.27561 0,31.27561 c -2.94666,1.83976 -5.89334,3.67937 -8.83997,5.25637 l 0,-35.48064 c 2.94663,-0.26277 5.89331,-0.78842 8.83997,-1.05134 l 0,0 z m 0,153.74939 0,11.56406 -0.26791,0 c -2.94665,0 -5.62543,-2.36542 -5.62543,-5.78204 0,-2.89108 2.67878,-5.78202 5.62543,-5.78202 l 0.26791,0 0,0 z m 0,89.88406 0,4.73087 c -1.60729,0.52565 -2.94666,1.05117 -3.48242,1.57684 -2.14303,1.57702 -3.75028,2.89111 -5.35755,4.46795 l 0,-4.99362 c 2.67877,-2.36526 5.35755,-4.20502 8.83997,-5.78204 l 0,0 z m 0,30.74994 0,12.3525 c -1.07153,7.09612 -0.53578,14.19226 -8.83997,18.39729 l 0,-17.34595 c 3.21452,-4.46795 5.89331,-8.93589 8.83997,-13.40384 l 0,0 z m -8.83997,-88.30722 0,-7.88471 c 2.4109,0 4.01818,1.83977 4.01818,3.94243 0,2.10252 -1.60728,3.67936 -4.01818,3.94228 z m 0,-185.02483 0,35.48064 c -2.14303,1.31409 -4.5539,2.62818 -6.69693,3.94227 l 0,-38.63449 c 2.14303,-0.26275 4.5539,-0.52567 6.69693,-0.78842 l 0,0 z m 0,177.14012 0,7.88471 0,0 c -2.14303,0 -4.01815,-1.83976 -4.01815,-3.94228 0,-2.10266 1.87512,-3.94243 4.01815,-3.94243 l 0,0 0,0 z m 0,71.22403 0,4.99362 c -2.41091,2.62818 -4.82177,4.9936 -6.69693,7.88455 l 0,-5.25637 c 2.14303,-3.15385 4.5539,-5.51911 6.69693,-7.6218 l 0,0 z m 0,38.37174 0,17.34595 c 0,0.26291 -0.26789,0.26291 -0.53574,0.52567 -5.62545,2.62818 -7.23268,10.24997 -5.08969,15.76925 2.14304,5.25638 1.3394,9.72417 -1.0715,14.1921 l 0,-38.37157 c 2.4109,-3.15386 4.5539,-6.30771 6.69693,-9.4614 l 0,0 z m -6.69693,-67.01899 0,-7.88456 0,0 c 1.87516,0 4.01815,1.83975 4.01815,4.20518 0,1.83961 -2.14299,3.67938 -4.01815,3.67938 l 0,0 z m 0,-218.92848 0,38.63449 c -5.62542,3.15385 -11.25084,6.04481 -16.87629,8.67298 l 0,-45.2048 c 5.62545,-0.52565 10.98298,-1.31409 16.87629,-2.10267 l 0,0 z m 0,211.04392 0,7.88456 c -2.41091,0 -4.01817,-1.83977 -4.01817,-3.67938 0,-2.10266 1.60726,-3.94242 4.01817,-4.20518 l 0,0 z m 0,44.15361 0,5.25637 c -2.67876,3.15385 -5.08967,6.57046 -8.03633,10.51274 -2.4109,3.15385 -5.35754,5.78203 -8.83996,8.14745 l 0,-4.9936 c 4.55393,-3.67937 8.57208,-8.14732 12.0545,-13.14092 1.87514,-2.10252 3.21451,-4.20519 4.82179,-5.78204 l 0,0 z m 0,40.21134 0,38.37157 c -1.07149,1.57701 -2.14302,3.15386 -3.4824,4.73086 -4.55393,5.51913 -7.50057,14.71777 -5.62544,22.33957 1.87516,8.93588 -2.41087,14.45499 -7.76845,17.87177 l 0,-8.93589 c 1.87513,-3.67953 1.60729,-8.41022 0.2679,-13.6666 l -0.2679,-0.52565 0,-44.41652 c 6.69694,-4.73071 12.0545,-10.24984 16.87629,-15.76911 l 0,0 z m -16.87629,-41.78819 0,-8.93588 c 2.14303,0.52567 3.48242,2.10251 3.48242,4.20502 0,2.36544 -1.33939,4.2052 -3.48242,4.73086 l 0,0 z m 0,-20.23704 0,-8.41038 c 0.53576,0 1.3394,-0.26276 1.87513,-0.26276 2.41089,0 4.55393,1.83977 4.55393,4.46795 0,2.36542 -2.14304,4.46793 -4.55393,4.46793 -0.53573,0 -1.33937,0 -1.87513,-0.26274 l 0,0 z m 0,-25.23082 0,-9.72431 c 0.53576,0 0.80365,0 1.3394,0 2.67876,0 5.08966,2.10268 5.08966,4.99361 0,2.89109 -2.4109,4.99361 -5.08966,4.99361 -0.53575,0 -0.80364,0 -1.3394,-0.26291 l 0,0 z m 0,-26.5446 0,-4.9936 c 0.80365,-0.78843 1.87513,-1.57701 2.94667,-1.57701 2.41091,0 4.28602,2.10267 4.28602,4.20519 0,1.83976 -1.87511,3.67936 -4.28602,3.67936 -1.07154,0 -2.14302,-0.52551 -2.94667,-1.31394 l 0,0 z m 0,-17.60901 0,-11.30116 0.2679,0 c 2.94664,0 5.62542,2.62818 5.62542,5.51912 0,3.41676 -2.67878,5.78204 -5.62542,5.78204 l -0.2679,0 z m 7.48074,315.44734 c -6.16117,3.94227 -20.33885,12.2883 -26.76791,15.96782 l 0,-60.44855 c 5.08966,8.41023 11.25085,16.82045 17.6799,28.38452 l 9.08801,16.09621 z m -7.48074,-477.34388 0,45.2048 c -6.42903,2.89109 -12.85811,5.78204 -19.28717,8.41022 l 0,-50.46132 c 6.42906,-1.05117 12.85814,-2.10251 19.28717,-3.1537 l 0,0 z m 0,150.59538 0,11.30116 c -3.21452,0 -5.62542,-2.62818 -5.62542,-5.78204 0,-2.89094 2.4109,-5.25636 5.62542,-5.51912 l 0,0 z m 0,23.91657 0,4.9936 c -0.53574,-0.52566 -0.80362,-1.577 -0.80362,-2.36542 0,-1.05133 0.26788,-2.10252 0.80362,-2.62818 l 0,0 z m 0,21.81389 0,9.72431 c -2.41088,-0.52552 -4.01816,-2.36527 -4.01816,-4.7307 0,-2.62819 1.60728,-4.46795 4.01816,-4.99361 l 0,0 z m 0,26.54475 0,8.41038 c -1.60727,-0.78859 -2.67875,-2.36544 -2.67875,-4.20519 0,-1.83976 1.07148,-3.41661 2.67875,-4.20519 l 0,0 z m 0,19.71154 0,8.93588 c -0.26788,0 -0.53574,0 -0.80362,0 -2.94666,0 -4.8218,-1.83975 -4.8218,-4.73086 0,-2.36526 1.87514,-4.20502 4.8218,-4.20502 0.26788,0 0.53574,0 0.80362,0 l 0,0 z m 0,29.43569 0,4.9936 c -3.21452,2.62819 -6.69692,4.99362 -10.7151,8.14747 -2.94666,1.31409 -5.89329,2.10251 -8.57207,3.15369 l 0,-3.15369 c 7.23269,-3.41677 13.66175,-7.6218 19.28717,-13.14107 l 0,0 z m 0,37.05749 0,44.41652 c -2.41088,-9.46141 -7.23268,-13.40384 -12.59021,-22.07682 -4.01818,-7.6218 1.07149,-14.71791 6.42903,-18.13453 2.14302,-1.31409 4.28604,-2.62818 6.16118,-4.20517 l 0,0 z m 0,58.60877 0,8.93589 c -0.53574,0.26275 -1.33938,0.78842 -2.14301,1.31409 -6.96482,3.67936 -12.0545,5.78204 -17.14416,7.62179 l 0,-7.09628 c 4.01818,-1.31408 8.03633,-2.89094 12.05449,-4.46778 3.75029,-1.31409 6.16116,-3.41678 7.23268,-6.30771 l 0,0 z m -19.28717,-104.33925 0,-4.73069 c 0.53575,-0.52567 1.3394,-0.78859 2.41091,-0.78859 1.87513,0 3.2145,1.31411 3.2145,3.15386 0,1.83976 -1.33937,3.41677 -3.2145,3.41677 -1.07151,0 -1.87516,-0.52568 -2.41091,-1.05135 l 0,0 z m 0,-23.12814 0,-9.72431 0,0 c 2.94664,0 5.08966,2.10252 5.08966,4.99362 0,2.89093 -2.14302,4.73069 -5.08966,4.73069 l 0,0 0,0 z m 0,-20.4998 0,-7.6218 c 1.07153,-1.05132 2.41091,-1.83975 4.01818,-1.83975 2.94667,0 5.89329,2.62818 5.89329,5.51928 0,3.4166 -2.94662,5.78188 -5.89329,5.78188 -1.60727,0 -2.94665,-0.78842 -4.01818,-1.83961 l 0,0 z m 0,-43.10243 0,-6.83322 0,0 c 1.87516,0 3.48239,1.31409 3.48239,3.1537 0,2.10267 -1.60723,3.67952 -3.48239,3.67952 l 0,0 z m 0,316.69724 c -1.60725,0.78842 -3.21455,1.83975 -4.5539,2.62818 l 0,-70.69835 c 1.33935,2.62818 2.94665,4.9936 4.5539,7.62162 l 0,60.44855 0,0 z m 0,-490.158 0,50.46132 c -1.60725,0.52567 -3.21455,1.05134 -4.5539,1.577 l 0,-51.51265 c 1.33935,-0.26275 2.94665,-0.26275 4.5539,-0.52567 l 0,0 z m 0,166.62754 0,6.83322 c -1.87511,0 -3.48238,-1.57685 -3.48238,-3.67952 0,-1.83961 1.60727,-3.1537 3.48238,-3.1537 l 0,0 z m 0,42.31385 0,7.6218 c -1.0715,-1.05134 -1.60725,-2.36543 -1.60725,-3.94227 0,-1.31425 0.53575,-2.62819 1.60725,-3.67953 l 0,0 z m 0,18.39729 0,9.72431 c -1.87511,0 -3.75028,-0.78842 -4.5539,-2.36527 l 0,-4.46794 c 0.80362,-1.83977 2.67879,-2.8911 4.5539,-2.8911 l 0,0 z m 0,28.12176 0,4.73069 c -0.53576,-0.52566 -1.0715,-1.31409 -1.0715,-2.36542 0,-0.78842 0.53574,-1.83975 1.0715,-2.36527 l 0,0 z m 0,26.54475 0,3.15369 -4.5539,1.577 0,-2.62818 c 1.60725,-0.78842 2.94665,-1.31409 4.5539,-2.10251 l 0,0 z m 0,93.30068 0,7.09628 c -1.60725,0.52552 -2.94665,1.05118 -4.5539,1.57685 l 0,-7.09613 c 1.33935,-0.52567 2.94665,-1.05134 4.5539,-1.577 l 0,0 z m -4.5539,-176.08878 0,-7.88455 c 2.143,0 3.75027,1.8396 3.75027,3.94228 0,2.10251 -1.60727,3.94227 -3.75027,3.94227 z m 0,293.56909 c -28.66289,15.50635 -59.4688,27.59593 -91.88195,35.48064 l 0,-99.08286 c 5.08966,-7.88456 7.76843,-13.14109 13.92961,-21.2884 5.08967,-6.83336 9.10784,-16.55767 22.23383,-17.87176 21.43021,-2.10252 39.1101,-7.35889 55.71851,-13.14093 l 0,7.09613 c -4.01817,1.31409 -8.03635,2.62818 -13.126,4.46795 3.21453,14.19224 7.76845,24.44223 13.126,33.64088 l 0,70.69835 0,0 z m 0,-492.26051 0,51.51265 c -25.71623,9.72432 -53.03973,16.29478 -87.86379,25.23066 14.73324,28.12161 8.30419,52.56384 -4.01816,60.97406 l 0,-19.44863 c 0.80364,-1.577 1.0715,-3.15384 1.3394,-4.9936 0.80362,-7.35889 1.07148,-13.66659 -1.3394,-19.18588 l 0,-70.96111 c 1.3394,-0.52566 2.67878,-1.05133 4.01816,-1.31409 34.82406,-11.03841 60.80815,-17.08336 87.86379,-21.81406 l 0,0 z m 0,190.80687 0,7.88455 c -2.41091,0 -4.01817,-1.83976 -4.01817,-3.94227 0,-2.10268 1.60726,-3.94228 4.01817,-3.94228 l 0,0 z m 0,38.89724 0,4.46794 c -0.53578,-0.78858 -0.53578,-1.577 -0.53578,-2.36542 0,-0.78843 0,-1.57685 0.53578,-2.10252 l 0,0 z m 0,53.87792 c -7.76844,3.15386 -16.07264,5.25638 -25.44834,6.57047 0.80361,-16.03202 2.94663,-47.57024 11.78658,-132.98652 l -2.94665,-0.52566 c -5.62543,40.4741 -8.03632,60.71129 -13.66174,100.65972 -20.35868,18.6602 -30.27016,27.85884 -50.62882,45.99337 -3.75029,-4.99346 -7.50057,-10.24998 -10.98298,-14.98067 l 0,38.10881 9.91145,-13.14091 c 4.55392,-6.30771 6.42906,-9.72431 12.05448,-14.71792 13.66177,-12.87817 20.35867,-19.44863 34.28831,-32.3268 2.41089,-2.10251 7.76845,0.26277 7.50058,3.67953 -0.80366,7.6218 -1.33938,11.56407 -2.14302,19.44862 -0.53575,3.41661 -4.55394,2.10252 -7.50058,3.41661 -2.143,1.05132 0,6.57046 2.14302,5.78204 14.4654,-5.25637 23.57323,-8.41022 35.62771,-12.35251 l 0,-2.62818 0,0 z m -91.88195,-286.73589 0,-12.61524 c 20.62656,-0.78843 34.82407,-1.31409 58.93302,-1.83976 -20.62654,5.25636 -40.18162,9.98706 -58.93302,14.455 z m 0,530.89501 c -30.27014,7.62164 -62.14754,11.82683 -95.0965,11.82683 -17.67986,0 -35.62764,-1.31409 -53.03968,-3.67952 l 0,-422.87609 c 2.14301,-1.05133 4.01817,-2.89109 5.35755,-4.9936 2.41091,-3.15385 5.08967,-9.98723 0.53575,-9.98723 -2.4109,0 -4.28606,0.78858 -5.8933,2.36543 l 0,-52.82659 c 46.61064,-0.52566 91.34618,-7.09613 148.13618,-24.44223 l 0,70.96111 c -1.07151,-2.89094 -2.94664,-5.51912 -5.62543,-8.41021 -5.62541,7.8847 -11.25083,17.60902 -19.55503,17.60902 -0.53577,7.88453 -0.26788,14.98067 3.75028,23.12798 3.48238,7.09612 17.14412,2.10268 21.43018,-8.14731 l 0,19.44863 c -9.91146,6.83321 -23.57322,3.1537 -33.75255,-17.08336 -5.08967,-11.0384 -4.28604,-21.02546 1.87512,-29.96135 7.50058,-10.51274 0.80366,-20.23706 -4.5539,-28.64727 -2.94663,-4.46794 -8.83996,-8.41022 -15.53688,-4.20519 -23.03747,13.14108 -46.87854,14.19227 -57.05787,-1.31394 -4.8218,-7.8847 -16.34051,-9.19879 -18.21567,3.41662 -2.4109,13.92934 -1.07152,24.70498 -4.82177,37.05748 -2.14304,7.88456 -0.53579,13.66659 6.9648,9.98707 4.28602,-0.78842 6.16118,-1.31409 10.44722,-2.10251 -2.94664,5.78203 -2.94664,10.51273 -1.87516,16.29476 18.75141,-1.05117 32.14529,-1.57685 50.89671,-1.57685 -7.50058,13.40369 -23.57323,21.81406 -27.32349,8.9359 -13.126,-1.31425 -21.69806,-0.52568 -32.14528,-3.41677 -4.8218,4.46794 -7.50059,6.57047 -11.25087,10.5129 -5.35754,7.88454 17.6799,6.8332 33.2168,6.30754 3.75028,11.82698 -28.93073,8.41022 -41.2531,3.94227 -8.57209,21.28839 4.28604,43.36519 35.35981,42.0511 2.67874,11.56407 4.01814,17.60887 6.69691,29.96136 2.67879,11.82698 17.67992,10.77564 18.48353,-2.89095 0.26789,-9.46154 0.53575,-14.19225 1.07153,-23.65366 0.26786,-7.35903 2.14303,-12.6154 6.69695,-15.76925 10.98295,-7.35889 11.5187,-34.16638 23.03742,-34.6922 -8.03632,24.70513 -12.59021,38.10881 -21.96594,64.91647 29.19865,22.33956 49.55734,47.83314 75.00568,82.5252 l 0,38.10881 c -7.23268,9.72431 -13.12601,17.60887 -22.23383,29.69861 -1.60726,26.54475 0,44.41637 2.94667,72.01246 1.07148,12.08973 10.44722,14.455 17.94777,2.89093 0.53576,-0.78842 0.80362,-1.57684 1.33939,-2.36526 l 0,99.08286 0,0 z M 341.51625,60.744663 c 17.41204,-2.36542 35.36001,-3.76464 53.03968,-3.67951 23.95649,0.11544 26.38799,-1.33072 29.26937,1.21665 0.78835,5.491256 1.81048,8.776106 3.33257,17.226196 23.03746,68.070181 30.88502,111.915471 47.22554,187.607441 l 15.26902,-0.52566 0,12.61524 c -48.75367,11.03842 -93.22134,18.39746 -148.13618,19.71155 l 0,-234.171907 z m 0,753.502677 c -2.67878,-0.52567 -5.35753,-0.78843 -8.03632,-1.31409 l 0,-419.98514 c 0.26787,0.26275 0.80361,0.26275 1.33939,0.26275 2.41088,0 4.5539,-0.52552 6.69693,-1.83961 l 0,422.87609 0,0 z M 333.47993,62.058763 c 2.67879,-0.52567 5.35754,-0.78858 8.03632,-1.3141 l 0,234.171907 c -2.67878,0 -5.35753,0 -8.03632,0.26275 l 0,-233.120557 0,0 z m 8.03632,263.870497 0,52.82659 c -1.33936,1.31409 -2.67878,3.15385 -4.28605,5.51928 -1.33937,1.57685 -2.94666,3.94226 -3.75027,6.04479 l 0,-35.48064 c 0,-0.26276 0.26787,-0.26276 0.26787,-0.26276 l -0.26787,-0.2629 0,-28.38436 c 2.67879,0 5.35754,0 8.03632,0 z m -8.03632,487.00399 c -6.42905,-1.05119 -12.85811,-2.10253 -19.28718,-3.41662 l 0,-425.2415 c 5.62543,2.10252 9.37574,2.10252 13.39387,-6.83337 3.75029,-8.93589 -3.75027,-18.92296 5.89331,-22.60248 l 0,35.48064 c -0.53576,1.05133 -0.53576,2.10252 0,2.62819 l 0,419.98514 0,0 z M 314.19275,65.475369 c 6.42907,-1.3141 12.85813,-2.36543 19.28718,-3.416606 l 0,233.120557 c -6.42905,0 -12.85811,0 -19.28718,0 l 0,-229.703951 0,0 z m 19.28718,260.453891 0,28.38436 c -6.9648,-4.46779 -9.10784,-9.98707 -17.41204,-11.0384 -0.53575,-0.26276 -1.33937,-0.26276 -1.87514,-0.26276 l 0,-17.34611 c 6.42907,0.26291 12.85813,0.26291 19.28718,0.26291 z m -19.28718,483.58737 c -4.28604,-1.05132 -8.57207,-1.83974 -12.59024,-2.89093 l 0,-348.2356 c 3.21454,-3.15386 5.08968,-7.35889 5.89329,-11.30117 2.6788,-14.19225 0.26789,-25.49356 -5.89329,-36.26905 l 0,-36.53198 c 2.67879,4.20519 5.89329,7.09613 11.51876,9.46157 0.26786,0.26275 0.53575,0.26275 1.07148,0.52566 l 0,425.2415 0,0 z M 301.60251,68.366309 c 4.01817,-1.05119 8.3042,-1.83976 12.59024,-2.89094 l 0,229.703951 c -4.28604,0 -8.30418,-0.26275 -12.59024,-0.26275 l 0,-226.550261 0,0 z m 12.59024,257.300041 0,17.34611 c -5.08965,-0.52567 -9.3757,0.52567 -12.59024,2.10251 l 0,-19.9743 c 4.01817,0.26293 8.3042,0.26293 12.59024,0.52568 z M 301.60251,806.6257 c -13.66174,-3.41676 -26.78771,-7.35903 -39.64584,-11.82698 l 0,-339.03681 c 8.3042,-2.36542 16.34054,0.52567 22.50171,3.94228 7.23267,3.94227 13.12599,2.36543 17.14413,-1.31409 l 0,348.2356 0,0 z m 0,-738.259391 0,226.550261 c -5.62542,0 -11.25082,-0.26291 -17.14413,-0.52567 -8.57208,2.89094 -15.80476,5.51912 -22.50171,7.62179 l 0,-17.60902 c 6.16119,-1.05117 12.59024,-2.10252 19.01931,-3.41661 -2.14303,-77.00606 4.01816,-120.3711 14.46537,-191.858041 3.79312,-14.44193 2.51368,-18.26752 6.16116,-20.76271 z m 0,256.774361 0,19.9743 c -7.23266,3.94227 -9.64357,12.3525 -3.75028,22.86539 1.07153,2.36527 2.41092,4.46778 3.75028,6.30754 l 0,36.53198 c -1.87514,-2.62818 -3.75028,-5.25652 -5.8933,-8.14747 -8.30419,29.96136 -23.03742,34.42931 -33.75254,27.59608 l 0,-8.93588 c 4.01818,4.20504 10.17935,5.25637 14.46538,1.31409 6.9648,-6.83337 9.10782,-14.19225 11.51872,-23.65381 -6.16118,-4.20502 -11.51872,-9.98706 -18.48353,-13.66658 -3.21453,2.89108 -5.62543,5.78203 -7.50057,8.93589 l 0,-13.92936 c 1.60728,-1.31424 3.48239,-2.62817 5.35755,-3.94242 -0.80362,-7.09612 -1.60728,-10.51274 -2.41092,-17.87162 l -2.94663,-0.26291 0,-36.00615 c 13.92963,1.31409 26.78774,2.10251 39.64584,2.89093 z m -39.64584,469.65805 c -34.02043,-12.3525 -65.89785,-29.43569 -95.09646,-50.19841 l 0,-223.65917 3.2145,-3.15383 c 20.62658,-20.49997 39.11012,-18.39745 54.91489,-32.3268 13.66175,-12.35248 17.412,-16.55768 29.73439,-25.75632 2.41091,-1.83976 4.82178,-3.15386 7.23268,-3.94228 l 0,339.03681 0,0 z m 0,-510.39505 0,17.60902 c -14.73326,5.25637 -27.32348,9.46141 -46.34277,15.76911 16.34052,1.83976 31.87741,3.15385 46.34277,4.46794 l 0,36.00615 c -35.35981,-1.8396 -65.36208,-2.36528 -95.09646,-4.99346 l 0,-50.46131 c 30.00224,-6.83337 57.32574,-11.56408 95.09646,-18.39745 l 0,0 z m 0,95.92917 0,13.92936 c -5.35757,8.67298 -5.08969,17.3461 -1.87512,23.65381 0.53574,1.31394 1.07148,2.36527 1.87512,3.4166 l 0,8.93588 c -12.59023,-8.14746 -19.01929,-33.37811 0,-49.93565 z M 166.86021,744.60031 C 70.156465,675.21604 68.565605,651.82761 58.926625,635.07043 c -0.68419,-0.0154 19.83851,-21.05518 16.31951,-17.67474 35.627715,-37.58316 54.646995,-59.13429 91.614075,-96.45455 l 0,223.65917 0,0 z m 0,-441.79919 c -17.14416,3.94226 -35.35982,8.41021 -57.05791,14.71792 -29.734365,8.41022 -33.484675,19.18571 -8.57205,25.23066 22.76958,5.78204 44.19977,8.67298 65.62996,10.51273 l 0,-50.46131 z"
       sodipodi:nodetypes="cccccccccccccscccccccccccccccccsccccccccccccccccccsccccccccccsccccccccccccccccccccsccccccccccscccccccccccccccccccccccsccccsssccccsssccccssscccccscccccccccccccccsccccsccccsccccsccccssscccccccccccccccccccccccccssscccccscccccssscccccsccccccccccccccccsccccsccccccccccsccccccccccccccccscccccccccccccccccccccccccsccccscccccccccccccccccccccccccscccscccccccccccccccccccccccccccccccccccccccccsccccccccccscccccccccccccccccccccccccccccccccccccccccccccccccccccccccccccccccccccccccccccccccccccccccccccccccccccccccccccccccccccccccccccccc" />
  </g>
</svg>
