<svg xmlns="http://www.w3.org/2000/svg" xmlns:xlink="http://www.w3.org/1999/xlink" width="144" height="144"><defs><linearGradient id="a"><stop offset="0" stop-color="#ff9800"/><stop offset="1" stop-color="#f2f2f2"/></linearGradient><linearGradient xlink:href="#a" id="b" x1="47.096" y1="992.669" x2="47.096" y2="1080.998" gradientUnits="userSpaceOnUse"/></defs><g transform="translate(0 -908.362)"><rect width="144" height="144" y="908.532" ry="23" rx="23" color="#000" fill="#003984" overflow="visible" enable-background="accumulate"/><path d="M43.395 1030.32h57.118l19.687 22.042h-76.805z" color="#000" fill="#001938" overflow="visible" enable-background="accumulate"/><path d="M107.353 955.413l-8.931 74.262c-.273 2.271-6.394 3.203-26.553 3.203s-26.298-.93-26.553-3.203l-8.757-77.989c28.615 9.456 38.608-5.501 70.795 3.727z" fill="url(#b)"/><path d="M72 940.736c20.581 0 37.426 1.897 37.151 4.216l-10.041 84.525c-.276 2.319-6.529 4.216-27.11 4.216s-26.835-1.897-27.11-4.216l-10.041-84.525c-.276-2.319 16.569-4.216 37.151-4.216z" color="#000" stroke="#bad9ff" stroke-width="3" overflow="visible" enable-background="accumulate" fill="none"/><path transform="translate(8.515 882.855)" d="M53.873 110.795a3.388 3.388 0 1 1-6.776 0 3.388 3.388 0 1 1 6.776 0z" color="#000" fill="#ffe2b7" overflow="visible" enable-background="accumulate"/><path d="M53.873 110.795a3.388 3.388 0 1 1-6.776 0 3.388 3.388 0 1 1 6.776 0z" transform="matrix(1.75 0 0 1.75 1.948 782.235)" color="#000" fill="#ffe2b7" overflow="visible" enable-background="accumulate"/><path transform="translate(32.866 884.306)" d="M53.873 110.795a3.388 3.388 0 1 1-6.776 0 3.388 3.388 0 1 1 6.776 0z" color="#000" fill="#ffe2b7" overflow="visible" enable-background="accumulate"/><path d="M72 961.12l6.116 12.856 14.117 1.844-10.337 9.789 2.609 13.996-12.505-6.806-12.505 6.806 2.609-13.996-10.337-9.789 14.117-1.844z" color="#000" fill="#d91616" overflow="visible" enable-background="accumulate"/><path d="M53.873 110.795a3.388 3.388 0 1 1-6.776 0 3.388 3.388 0 1 1 6.776 0z" transform="translate(.678 875.157)" color="#000" fill="#ffe2b7" overflow="visible" enable-background="accumulate"/><path d="M53.873 110.795a3.388 3.388 0 1 1-6.776 0 3.388 3.388 0 1 1 6.776 0z" transform="translate(23.932 892.342)" color="#000" fill="#ffe2b7" overflow="visible" enable-background="accumulate"/><path transform="matrix(.5 0 0 .5 33.777 956.748)" d="M53.873 110.795a3.388 3.388 0 1 1-6.776 0 3.388 3.388 0 1 1 6.776 0z" color="#000" fill="#ffe2b7" overflow="visible" enable-background="accumulate"/><path d="M53.873 110.795a3.388 3.388 0 1 1-6.776 0 3.388 3.388 0 1 1 6.776 0z" transform="matrix(.5 0 0 .5 59.499 952.697)" color="#000" fill="#ffe2b7" overflow="visible" enable-background="accumulate"/><path transform="matrix(.5 0 0 .5 51.712 971.082)" d="M53.873 110.795a3.388 3.388 0 1 1-6.776 0 3.388 3.388 0 1 1 6.776 0z" color="#000" fill="#ffe2b7" overflow="visible" enable-background="accumulate"/><path d="M53.873 110.795a3.388 3.388 0 1 1-6.776 0 3.388 3.388 0 1 1 6.776 0z" transform="matrix(.5 0 0 .5 49.23 955.786)" color="#000" fill="#ffe2b7" overflow="visible" enable-background="accumulate"/><path transform="matrix(.5 0 0 .5 46.453 966.412)" d="M53.873 110.795a3.388 3.388 0 1 1-6.776 0 3.388 3.388 0 1 1 6.776 0z" color="#000" fill="#ffe2b7" overflow="visible" enable-background="accumulate"/><path d="M53.873 110.795a3.388 3.388 0 1 1-6.776 0 3.388 3.388 0 1 1 6.776 0z" transform="matrix(.5 0 0 .5 39.011 963.127)" color="#000" fill="#ffe2b7" overflow="visible" enable-background="accumulate"/><path transform="matrix(.5 0 0 .5 36.319 948.865)" d="M53.873 110.795a3.388 3.388 0 1 1-6.776 0 3.388 3.388 0 1 1 6.776 0z" color="#000" fill="#ffe2b7" overflow="visible" enable-background="accumulate"/><path transform="matrix(.5 0 0 .5 54.49 962.863)" d="M53.873 110.795a3.388 3.388 0 1 1-6.776 0 3.388 3.388 0 1 1 6.776 0z" color="#000" fill="#ffe2b7" overflow="visible" enable-background="accumulate"/><path transform="matrix(1.75 0 0 1.75 -33.967 773.256)" d="M53.873 110.795a3.388 3.388 0 1 1-6.776 0 3.388 3.388 0 1 1 6.776 0z" color="#000" fill="#ffe2b7" overflow="visible" enable-background="accumulate"/></g></svg>