<?xml version="1.0" encoding="UTF-8" standalone="no"?>
<svg
   xmlns:dc="http://purl.org/dc/elements/1.1/"
   xmlns:cc="http://creativecommons.org/ns#"
   xmlns:rdf="http://www.w3.org/1999/02/22-rdf-syntax-ns#"
   xmlns:svg="http://www.w3.org/2000/svg"
   xmlns="http://www.w3.org/2000/svg"
   xmlns:xlink="http://www.w3.org/1999/xlink"
   xmlns:sodipodi="http://sodipodi.sourceforge.net/DTD/sodipodi-0.dtd"
   xmlns:inkscape="http://www.inkscape.org/namespaces/inkscape"
   width="144"
   height="144"
   id="svg2985"
   version="1.1"
   inkscape:version="0.48.4 r9939"
   sodipodi:docname="mete-logo.svg">
  <metadata
     id="metadata3037">
    <rdf:RDF>
      <cc:Work
         rdf:about="">
        <dc:format>image/svg+xml</dc:format>
        <dc:type
           rdf:resource="http://purl.org/dc/dcmitype/StillImage" />
      </cc:Work>
    </rdf:RDF>
  </metadata>
  <sodipodi:namedview
     pagecolor="#ffffff"
     bordercolor="#666666"
     borderopacity="1"
     objecttolerance="10"
     gridtolerance="10"
     guidetolerance="10"
     inkscape:pageopacity="0"
     inkscape:pageshadow="2"
     inkscape:window-width="1678"
     inkscape:window-height="1029"
     id="namedview3035"
     showgrid="false"
     inkscape:zoom="0.73784722"
     inkscape:cx="43.423224"
     inkscape:cy="106.5462"
     inkscape:window-x="0"
     inkscape:window-y="19"
     inkscape:window-maximized="0"
     inkscape:current-layer="svg2985" />
  <defs
     id="defs2987">
    <linearGradient
       id="a">
      <stop
         offset="0"
         stop-color="#ff9800"
         id="stop2990" />
      <stop
         offset="1"
         stop-color="#f2f2f2"
         id="stop2992" />
    </linearGradient>
    <linearGradient
       xlink:href="#a"
       id="b"
       x1="47.096"
       y1="992.669"
       x2="47.096"
       y2="1080.998"
       gradientUnits="userSpaceOnUse" />
    <linearGradient
       inkscape:collect="always"
       xlink:href="#a"
       id="linearGradient3125"
       gradientUnits="userSpaceOnUse"
       x1="47.096"
       y1="992.669"
       x2="47.096"
       y2="1080.998"
       gradientTransform="translate(0,-908.362)" />
  </defs>
  <rect
     style="color:#000000;fill:#003984;overflow:visible;enable-background:accumulate"
     x="0"
     id="rect2997"
     overflow="visible"
     rx="23"
     ry="23"
     y="0.16998242"
     height="144"
     width="144" />
  <path
     style="color:#000000;fill:#001938;overflow:visible;enable-background:accumulate"
     inkscape:connector-curvature="0"
     id="path2999"
     overflow="visible"
     d="m 43.395,121.958 h 57.118 L 120.2,144 H 43.395 z" />
  <path
     inkscape:connector-curvature="0"
     style="fill:url(#linearGradient3125)"
     id="path3001"
     d="m 107.353,47.051 -8.931,74.262 c -0.273,2.271 -6.394,3.203 -26.553,3.203 -20.159,0 -26.298,-0.93 -26.553,-3.203 L 36.559,43.324 c 28.615,9.456 38.608,-5.501 70.795,3.727 z" />
  <path
     style="color:#000000;fill:none;stroke:#bad9ff;stroke-width:3;overflow:visible;enable-background:accumulate"
     inkscape:connector-curvature="0"
     id="path3003"
     overflow="visible"
     d="m 72,32.374 c 20.581,0 37.426,1.897 37.151,4.216 L 99.11,121.115 c -0.276,2.319 -6.529,4.216 -27.11,4.216 -20.581,0 -26.835,-1.897 -27.11,-4.216 L 34.849,36.59 C 34.573,34.271 51.418,32.374 72,32.374 z" />
  <path
     style="color:#000000;fill:#ffe2b7;overflow:visible;enable-background:accumulate"
     inkscape:connector-curvature="0"
     id="path3005"
     overflow="visible"
     d="M 62.388,85.288" />
  <path
     style="color:#000000;fill:#ffe2b7;overflow:visible;enable-background:accumulate"
     inkscape:connector-curvature="0"
     id="path3007"
     overflow="visible"
     d="M 96.22575,67.76425" />
  <path
     style="color:#000000;fill:#ffe2b7;overflow:visible;enable-background:accumulate"
     inkscape:connector-curvature="0"
     id="path3009"
     overflow="visible"
     d="M 86.739,86.739" />
  <path
     style="color:#000000;fill:#ffe2b7;overflow:visible;enable-background:accumulate"
     inkscape:connector-curvature="0"
     id="path3013"
     overflow="visible"
     d="M 54.551,77.59" />
  <path
     style="color:#000000;fill:#ffe2b7;overflow:visible;enable-background:accumulate"
     inkscape:connector-curvature="0"
     id="path3015"
     overflow="visible"
     d="M 77.805,94.775" />
  <path
     style="color:#000000;fill:#ffe2b7;overflow:visible;enable-background:accumulate"
     inkscape:connector-curvature="0"
     id="path3017"
     overflow="visible"
     d="M 60.7135,103.7835" />
  <path
     style="color:#000000;fill:#ffe2b7;overflow:visible;enable-background:accumulate"
     inkscape:connector-curvature="0"
     id="path3019"
     overflow="visible"
     d="M 86.4355,99.7325" />
  <path
     style="color:#000000;fill:#ffe2b7;overflow:visible;enable-background:accumulate"
     inkscape:connector-curvature="0"
     id="path3021"
     overflow="visible"
     d="M 78.6485,118.1175" />
  <path
     style="color:#000000;fill:#ffe2b7;overflow:visible;enable-background:accumulate"
     inkscape:connector-curvature="0"
     id="path3023"
     overflow="visible"
     d="M 76.1665,102.8215" />
  <path
     style="color:#000000;fill:#ffe2b7;overflow:visible;enable-background:accumulate"
     inkscape:connector-curvature="0"
     id="path3025"
     overflow="visible"
     d="M 73.3895,113.4475" />
  <path
     style="color:#000000;fill:#ffe2b7;overflow:visible;enable-background:accumulate"
     inkscape:connector-curvature="0"
     id="path3027"
     overflow="visible"
     d="M 65.9475,110.1625" />
  <path
     style="color:#000000;fill:#ffe2b7;overflow:visible;enable-background:accumulate"
     inkscape:connector-curvature="0"
     id="path3029"
     overflow="visible"
     d="M 63.2555,95.9005" />
  <path
     style="color:#000000;fill:#ffe2b7;overflow:visible;enable-background:accumulate"
     inkscape:connector-curvature="0"
     id="path3031"
     overflow="visible"
     d="M 81.4265,109.8985" />
  <path
     style="color:#000000;fill:#ffe2b7;overflow:visible;enable-background:accumulate"
     inkscape:connector-curvature="0"
     id="path3033"
     overflow="visible"
     d="M 60.31075,58.78525" />
  <path
     sodipodi:type="arc"
     style="color:#000000;fill:#f2f2f2;fill-opacity:1;fill-rule:nonzero;stroke:none;stroke-width:3;marker:none;visibility:visible;display:inline;overflow:visible;enable-background:accumulate"
     id="path3039-8"
     sodipodi:cx="60.734119"
     sodipodi:cy="117.31765"
     sodipodi:rx="1.4400001"
     sodipodi:ry="1.4400001"
     d="m 62.174119,117.31765 a 1.4400001,1.4400001 0 1 1 -2.88,0 1.4400001,1.4400001 0 1 1 2.88,0 z"
     transform="matrix(2.2352941,0,0,2.2352941,-52.845677,-172.24886)" />
  <path
     sodipodi:type="arc"
     style="color:#000000;fill:#f2f2f2;fill-opacity:1;fill-rule:nonzero;stroke:none;stroke-width:3;marker:none;visibility:visible;display:inline;overflow:visible;enable-background:accumulate"
     id="path3039"
     sodipodi:cx="60.734119"
     sodipodi:cy="117.31765"
     sodipodi:rx="1.4400001"
     sodipodi:ry="1.4400001"
     d="m 62.174119,117.31765 a 1.4400001,1.4400001 0 1 1 -2.88,0 1.4400001,1.4400001 0 1 1 2.88,0 z"
     transform="matrix(1.4117647,0,0,1.4117647,-18.304361,-47.656192)" />
  <path
     sodipodi:type="arc"
     style="color:#000000;fill:#f2f2f2;fill-opacity:1;fill-rule:nonzero;stroke:none;stroke-width:3;marker:none;visibility:visible;display:inline;overflow:visible;enable-background:accumulate"
     id="path3039-4"
     sodipodi:cx="60.734119"
     sodipodi:cy="117.31765"
     sodipodi:rx="1.4400001"
     sodipodi:ry="1.4400001"
     d="m 62.174119,117.31765 a 1.4400001,1.4400001 0 1 1 -2.88,0 1.4400001,1.4400001 0 1 1 2.88,0 z"
     transform="matrix(1.4117647,0,0,1.4117647,-15.09758,-56.184917)" />
  <path
     sodipodi:type="arc"
     style="color:#000000;fill:#f2f2f2;fill-opacity:1;fill-rule:nonzero;stroke:none;stroke-width:3;marker:none;visibility:visible;display:inline;overflow:visible;enable-background:accumulate"
     id="path3039-41"
     sodipodi:cx="60.734119"
     sodipodi:cy="117.31765"
     sodipodi:rx="1.4400001"
     sodipodi:ry="1.4400001"
     d="m 62.174119,117.31765 a 1.4400001,1.4400001 0 1 1 -2.88,0 1.4400001,1.4400001 0 1 1 2.88,0 z"
     transform="matrix(1.4117647,0,0,1.4117647,-6.4575804,-58.556682)" />
  <path
     sodipodi:type="arc"
     style="color:#000000;fill:#f2f2f2;fill-opacity:1;fill-rule:nonzero;stroke:none;stroke-width:3;marker:none;visibility:visible;display:inline;overflow:visible;enable-background:accumulate"
     id="path3039-7"
     sodipodi:cx="60.734119"
     sodipodi:cy="117.31765"
     sodipodi:rx="1.4400001"
     sodipodi:ry="1.4400001"
     d="m 62.174119,117.31765 a 1.4400001,1.4400001 0 1 1 -2.88,0 1.4400001,1.4400001 0 1 1 2.88,0 z"
     transform="matrix(1.4117647,0,0,1.4117647,-23.568168,-60.081388)" />
  <path
     sodipodi:type="arc"
     style="color:#000000;fill:#f2f2f2;fill-opacity:1;fill-rule:nonzero;stroke:none;stroke-width:3;marker:none;visibility:visible;display:inline;overflow:visible;enable-background:accumulate"
     id="path3039-9"
     sodipodi:cx="60.734119"
     sodipodi:cy="117.31765"
     sodipodi:rx="1.4400001"
     sodipodi:ry="1.4400001"
     d="m 62.174119,117.31765 a 1.4400001,1.4400001 0 1 1 -2.88,0 1.4400001,1.4400001 0 1 1 2.88,0 z"
     transform="matrix(1.4117647,0,0,1.4117647,-17.808169,-66.857858)" />
  <path
     sodipodi:type="arc"
     style="color:#000000;fill:#f2f2f2;fill-opacity:1;fill-rule:nonzero;stroke:none;stroke-width:3;marker:none;visibility:visible;display:inline;overflow:visible;enable-background:accumulate"
     id="path3039-2"
     sodipodi:cx="60.734119"
     sodipodi:cy="117.31765"
     sodipodi:rx="1.4400001"
     sodipodi:ry="1.4400001"
     d="m 62.174119,117.31765 a 1.4400001,1.4400001 0 1 1 -2.88,0 1.4400001,1.4400001 0 1 1 2.88,0 z"
     transform="matrix(1.4117647,0,0,1.4117647,-3.4081682,-66.857858)" />
  <path
     sodipodi:type="arc"
     style="color:#000000;fill:#f2f2f2;fill-opacity:1;fill-rule:nonzero;stroke:none;stroke-width:3;marker:none;visibility:visible;display:inline;overflow:visible;enable-background:accumulate"
     id="path3039-0"
     sodipodi:cx="60.734119"
     sodipodi:cy="117.31765"
     sodipodi:rx="1.4400001"
     sodipodi:ry="1.4400001"
     d="m 62.174119,117.31765 a 1.4400001,1.4400001 0 1 1 -2.88,0 1.4400001,1.4400001 0 1 1 2.88,0 z"
     transform="matrix(1.4117647,0,0,1.4117647,-8.8704504,-46.429207)" />
  <path
     sodipodi:type="arc"
     style="color:#000000;fill:#f2f2f2;fill-opacity:1;fill-rule:nonzero;stroke:none;stroke-width:3;marker:none;visibility:visible;display:inline;overflow:visible;enable-background:accumulate"
     id="path3039-44"
     sodipodi:cx="60.734119"
     sodipodi:cy="117.31765"
     sodipodi:rx="1.4400001"
     sodipodi:ry="1.4400001"
     d="m 62.174119,117.31765 a 1.4400001,1.4400001 0 1 1 -2.88,0 1.4400001,1.4400001 0 1 1 2.88,0 z"
     transform="matrix(1.4117647,0,0,1.4117647,-27.464639,-71.940211)" />
  <path
     style="color:#000000;fill:#d91616;overflow:visible;enable-background:accumulate"
     inkscape:connector-curvature="0"
     id="path3011"
     overflow="visible"
     d="m 72,52.758 6.116,12.856 14.117,1.844 -10.337,9.789 2.609,13.996 L 72,84.437 59.495,91.243 62.104,77.247 51.767,67.458 65.884,65.614 z" />
  <path
     transform="matrix(2.2352941,0,0,2.2352941,-80.290383,-182.41357)"
     d="m 62.174119,117.31765 a 1.4400001,1.4400001 0 1 1 -2.88,0 1.4400001,1.4400001 0 1 1 2.88,0 z"
     sodipodi:ry="1.4400001"
     sodipodi:rx="1.4400001"
     sodipodi:cy="117.31765"
     sodipodi:cx="60.734119"
     id="path3138"
     style="color:#000000;fill:#f2f2f2;fill-opacity:1;fill-rule:nonzero;stroke:none;stroke-width:3;marker:none;visibility:visible;display:inline;overflow:visible;enable-background:accumulate"
     sodipodi:type="arc" />
  <path
     sodipodi:type="arc"
     style="color:#000000;fill:#f2f2f2;fill-opacity:1;fill-rule:nonzero;stroke:none;stroke-width:3;marker:none;visibility:visible;display:inline;overflow:visible;enable-background:accumulate"
     id="path3140"
     sodipodi:cx="60.734119"
     sodipodi:cy="117.31765"
     sodipodi:rx="1.4400001"
     sodipodi:ry="1.4400001"
     d="m 62.174119,117.31765 a 1.4400001,1.4400001 0 1 1 -2.88,0 1.4400001,1.4400001 0 1 1 2.88,0 z"
     transform="matrix(2.2352941,0,0,2.2352941,-43.866853,-183.43004)" />
  <path
     transform="matrix(3.2941176,0,0,3.2941176,-112.07004,-328.31695)"
     d="m 62.174119,117.31765 a 1.4400001,1.4400001 0 1 1 -2.88,0 1.4400001,1.4400001 0 1 1 2.88,0 z"
     sodipodi:ry="1.4400001"
     sodipodi:rx="1.4400001"
     sodipodi:cy="117.31765"
     sodipodi:cx="60.734119"
     id="path3142"
     style="color:#000000;fill:#f2f2f2;fill-opacity:1;fill-rule:nonzero;stroke:none;stroke-width:3;marker:none;visibility:visible;display:inline;overflow:visible;enable-background:accumulate"
     sodipodi:type="arc" />
  <path
     sodipodi:type="arc"
     style="color:#000000;fill:#f2f2f2;fill-opacity:1;fill-rule:nonzero;stroke:none;stroke-width:3;marker:none;visibility:visible;display:inline;overflow:visible;enable-background:accumulate"
     id="path3144"
     sodipodi:cx="60.734119"
     sodipodi:cy="117.31765"
     sodipodi:rx="1.4400001"
     sodipodi:ry="1.4400001"
     d="m 62.174119,117.31765 a 1.4400001,1.4400001 0 1 1 -2.88,0 1.4400001,1.4400001 0 1 1 2.88,0 z"
     transform="matrix(3.2941176,0,0,3.2941176,-149.51003,-327.30049)" />
</svg>
